<?xml version="1.0" encoding="UTF-8"?>
<svg xmlns="http://www.w3.org/2000/svg" xmlns:xlink="http://www.w3.org/1999/xlink" width="113px" height="75px" viewBox="0 0 112 75" version="1.1">
<g id="surface1">
<path style=" stroke:none;fill-rule:nonzero;fill:rgb(64.705882%,16.862745%,0%);fill-opacity:1;" d="M 61.054688 32.410156 C 50.359375 32.410156 40.691406 33.703125 33.414062 35.808594 L 33.414062 35.332031 C 26.132812 37.683594 21.496094 40.953125 21.496094 44.566406 C 21.496094 45.136719 21.621094 45.695312 21.84375 46.246094 L 21.097656 47.589844 C 21.097656 47.589844 20.5 48.375 21.558594 50.027344 C 22.492188 51.484375 27.171875 57.195312 29.644531 60.183594 C 30.703125 61.714844 31.425781 62.660156 31.488281 62.566406 C 31.585938 62.421875 30.828125 59.546875 28.71875 56.261719 C 27.738281 54.5 26.539062 52.164062 25.835938 50.441406 C 27.804688 51.691406 30.425781 52.824219 33.414062 53.800781 L 33.414062 53.785156 C 40.691406 55.890625 50.359375 57.183594 61.054688 57.183594 C 73.296875 57.183594 84.28125 55.492188 91.652344 52.824219 L 91.652344 36.769531 C 84.28125 34.101562 73.296875 32.410156 61.054688 32.410156 "/>
<path style=" stroke:none;fill-rule:nonzero;fill:rgb(64.705882%,16.862745%,0%);fill-opacity:1;" d="M 102.65625 47.300781 L 101.402344 44.691406 C 101.40625 44.59375 101.414062 44.492188 101.414062 44.394531 C 101.414062 41.4375 98.351562 38.710938 93.199219 36.527344 L 93.199219 52.261719 C 95.601562 51.242188 97.554688 50.105469 98.949219 48.882812 C 98.535156 50.539062 97.132812 53.894531 96.015625 56.25 C 94.175781 59.625 93.507812 62.5625 93.59375 62.707031 C 93.648438 62.796875 94.277344 61.824219 95.203125 60.25 C 97.355469 57.167969 101.433594 51.285156 102.25 49.785156 C 103.175781 48.085938 102.65625 47.300781 102.65625 47.300781 "/>
<path style=" stroke:none;fill-rule:nonzero;fill:rgb(96.862745%,29.803922%,0%);fill-opacity:1;" d="M 109.933594 47.285156 L 101.695312 41.1875 C 101.617188 40.917969 101.539062 40.644531 101.457031 40.375 L 104.164062 36.4375 C 104.441406 36.035156 104.496094 35.515625 104.316406 35.058594 C 104.136719 34.605469 103.746094 34.277344 103.28125 34.199219 L 98.703125 33.417969 C 98.527344 33.054688 98.339844 32.695312 98.152344 32.34375 L 100.078125 27.917969 C 100.273438 27.46875 100.234375 26.945312 99.96875 26.535156 C 99.710938 26.125 99.265625 25.886719 98.792969 25.90625 L 94.148438 26.074219 C 93.90625 25.757812 93.664062 25.449219 93.414062 25.140625 L 94.480469 20.402344 C 94.589844 19.921875 94.453125 19.417969 94.117188 19.066406 C 93.789062 18.71875 93.304688 18.574219 92.847656 18.6875 L 88.320312 19.804688 C 88.027344 19.542969 87.730469 19.289062 87.429688 19.035156 L 87.59375 14.171875 C 87.609375 13.675781 87.382812 13.210938 86.988281 12.9375 C 86.597656 12.660156 86.097656 12.621094 85.667969 12.824219 L 81.449219 14.839844 C 81.109375 14.644531 80.765625 14.449219 80.421875 14.261719 L 79.675781 9.464844 C 79.597656 8.980469 79.289062 8.566406 78.851562 8.378906 C 78.417969 8.191406 77.917969 8.25 77.539062 8.539062 L 73.773438 11.375 C 73.40625 11.253906 73.03125 11.132812 72.65625 11.019531 L 71.035156 6.472656 C 70.867188 6.011719 70.488281 5.667969 70.023438 5.574219 C 69.5625 5.480469 69.085938 5.640625 68.765625 6 L 65.597656 9.558594 C 65.214844 9.515625 64.832031 9.476562 64.449219 9.441406 L 62 5.300781 C 61.753906 4.882812 61.316406 4.628906 60.84375 4.628906 C 60.375 4.628906 59.9375 4.882812 59.691406 5.300781 L 57.242188 9.441406 C 56.859375 9.476562 56.472656 9.515625 56.089844 9.558594 L 52.921875 6 C 52.601562 5.640625 52.125 5.480469 51.664062 5.574219 C 51.203125 5.671875 50.820312 6.011719 50.65625 6.472656 L 49.03125 11.019531 C 48.65625 11.132812 48.285156 11.253906 47.914062 11.375 L 44.152344 8.539062 C 43.769531 8.25 43.269531 8.1875 42.835938 8.378906 C 42.402344 8.566406 42.089844 8.980469 42.015625 9.464844 L 41.265625 14.261719 C 40.921875 14.449219 40.582031 14.644531 40.238281 14.839844 L 36.019531 12.824219 C 35.589844 12.617188 35.089844 12.660156 34.699219 12.9375 C 34.308594 13.210938 34.078125 13.675781 34.097656 14.171875 L 34.257812 19.035156 C 33.957031 19.289062 33.660156 19.542969 33.367188 19.804688 L 28.84375 18.6875 C 28.382812 18.574219 27.902344 18.71875 27.566406 19.066406 C 27.234375 19.417969 27.097656 19.921875 27.207031 20.402344 L 28.269531 25.140625 C 28.023438 25.449219 27.777344 25.757812 27.539062 26.074219 L 22.894531 25.90625 C 22.425781 25.890625 21.976562 26.125 21.714844 26.535156 C 21.453125 26.945312 21.414062 27.46875 21.609375 27.917969 L 23.53125 32.34375 C 23.347656 32.695312 23.160156 33.054688 22.980469 33.417969 L 18.40625 34.199219 C 17.941406 34.277344 17.546875 34.601562 17.367188 35.058594 C 17.1875 35.515625 17.246094 36.035156 17.519531 36.4375 L 20.226562 40.375 C 20.207031 40.445312 20.1875 40.515625 20.167969 40.585938 L 12.511719 48.753906 C 12.511719 48.753906 11.339844 49.675781 13.046875 51.847656 C 14.550781 53.761719 22.285156 61.351562 26.371094 65.328125 C 28.09375 67.347656 29.277344 68.597656 29.398438 68.488281 C 29.59375 68.316406 28.570312 64.644531 25.175781 60.335938 C 22.554688 56.46875 19.15625 50.523438 19.953125 49.835938 C 19.953125 49.835938 20.859375 48.679688 22.679688 47.847656 C 22.746094 47.902344 22.609375 47.796875 22.679688 47.847656 C 22.679688 47.847656 61.066406 65.636719 96.679688 48.148438 C 100.746094 47.417969 103.207031 49.605469 103.207031 49.605469 C 104.058594 50.101562 101.859375 56.214844 100.050781 60.261719 C 97.589844 64.859375 97.230469 68.445312 97.4375 68.566406 C 97.570312 68.648438 98.464844 67.28125 99.742188 65.101562 C 102.890625 60.695312 108.84375 52.289062 109.933594 50.25 C 111.171875 47.933594 109.933594 47.285156 109.933594 47.285156 "/>
<path style=" stroke:none;fill-rule:nonzero;fill:rgb(0%,0%,0%);fill-opacity:1;" d="M 74.28125 58.554688 C 74.425781 58.425781 74.503906 58.351562 74.503906 58.351562 L 61.9375 57.179688 C 72.195312 43.585938 80.402344 54.554688 81.277344 55.765625 L 81.277344 58.554688 Z M 74.28125 58.554688 "/>
<path style=" stroke:none;fill-rule:nonzero;fill:rgb(96.862745%,29.803922%,0%);fill-opacity:1;" d="M 25.984375 43.578125 C 25.984375 43.578125 15.617188 39.523438 13.863281 35.160156 C 13.863281 35.160156 26.035156 25.4375 11.472656 15.109375 L 11.078125 28.273438 C 11.078125 28.273438 6.761719 24.089844 6.953125 16.769531 C 6.953125 16.769531 -6.464844 23.253906 9.238281 34.730469 C 9.238281 34.730469 9.769531 40.890625 23.890625 48.324219 Z M 25.984375 43.578125 "/>
<path style=" stroke:none;fill-rule:nonzero;fill:rgb(0%,0%,0%);fill-opacity:1;" d="M 68.128906 38.015625 C 68.128906 38.015625 71.964844 33.796875 75.800781 38.015625 C 75.800781 38.015625 78.816406 43.640625 75.800781 46.457031 C 75.800781 46.457031 70.867188 50.394531 68.128906 46.457031 C 68.128906 46.457031 64.839844 43.359375 68.128906 38.015625 "/>
<path style=" stroke:none;fill-rule:nonzero;fill:rgb(100%,100%,100%);fill-opacity:1;" d="M 72.570312 39.582031 C 72.570312 41.222656 71.605469 42.554688 70.417969 42.554688 C 69.226562 42.554688 68.265625 41.222656 68.265625 39.582031 C 68.265625 37.9375 69.226562 36.605469 70.417969 36.605469 C 71.605469 36.605469 72.570312 37.9375 72.570312 39.582031 "/>
<path style=" stroke:none;fill-rule:nonzero;fill:rgb(0%,0%,0%);fill-opacity:1;" d="M 51.003906 36.863281 C 51.003906 36.863281 57.585938 33.9375 59.382812 40.46875 C 59.382812 40.46875 61.265625 48.085938 53.976562 48.515625 C 53.976562 48.515625 44.6875 46.714844 51.003906 36.863281 "/>
<path style=" stroke:none;fill-rule:nonzero;fill:rgb(100%,100%,100%);fill-opacity:1;" d="M 54.3125 39.6875 C 54.3125 41.382812 53.316406 42.757812 52.089844 42.757812 C 50.863281 42.757812 49.871094 41.382812 49.871094 39.6875 C 49.871094 37.996094 50.863281 36.621094 52.089844 36.621094 C 53.316406 36.621094 54.3125 37.996094 54.3125 39.6875 "/>
<path style=" stroke:none;fill-rule:nonzero;fill:rgb(96.862745%,29.803922%,0%);fill-opacity:1;" d="M 93.542969 45.175781 C 93.542969 45.175781 92.167969 50.671875 83.621094 56.449219 L 81.222656 57.015625 C 81.222656 57.015625 73.472656 42.8125 62.488281 58.816406 C 62.488281 58.816406 65.910156 56.816406 75.085938 59.253906 C 75.085938 59.253906 70.867188 65.742188 62.363281 65.542969 C 62.363281 65.542969 70.511719 75.363281 82.914062 61.179688 C 82.914062 61.179688 96.023438 56.085938 97.085938 45.175781 Z M 93.542969 45.175781 "/>
</g>
</svg>
